<svg version="1.1" xmlns="http://www.w3.org/2000/svg" viewBox="0 0 1283.5679168701172 587.9999847412109" width="1283.5679168701172" height="587.9999847412109">
  <!-- svg-source:excalidraw -->
  
  <defs>
    <style class="style-fonts">
      @font-face {
        font-family: "Virgil";
        src: url("https://excalidraw.com/Virgil.woff2");
      }
      @font-face {
        font-family: "Cascadia";
        src: url("https://excalidraw.com/Cascadia.woff2");
      }
      @font-face {
        font-family: "Assistant";
        src: url("https://excalidraw.com/Assistant-Regular.woff2");
      }
    </style>
    
  </defs>
  <rect x="0" y="0" width="1283.5679168701172" height="587.9999847412109" fill="#ffffff"></rect><g stroke-linecap="round" transform="translate(200.00003051757812 11.599960327148438) rotate(0 408.39996337890625 283.20001220703125)"><path d="M32 0 C244.39 0, 456.77 0, 784.8 0 M32 0 C241.88 0, 451.76 0, 784.8 0 M784.8 0 C806.13 0, 816.8 10.67, 816.8 32 M784.8 0 C806.13 0, 816.8 10.67, 816.8 32 M816.8 32 C816.8 206.96, 816.8 381.93, 816.8 534.4 M816.8 32 C816.8 230.91, 816.8 429.82, 816.8 534.4 M816.8 534.4 C816.8 555.73, 806.13 566.4, 784.8 566.4 M816.8 534.4 C816.8 555.73, 806.13 566.4, 784.8 566.4 M784.8 566.4 C538.61 566.4, 292.43 566.4, 32 566.4 M784.8 566.4 C537.12 566.4, 289.44 566.4, 32 566.4 M32 566.4 C10.67 566.4, 0 555.73, 0 534.4 M32 566.4 C10.67 566.4, 0 555.73, 0 534.4 M0 534.4 C0 416.55, 0 298.7, 0 32 M0 534.4 C0 354.69, 0 174.98, 0 32 M0 32 C0 10.67, 10.67 0, 32 0 M0 32 C0 10.67, 10.67 0, 32 0" stroke="#1e1e1e" stroke-width="1" fill="none"></path></g><g stroke-linecap="round" transform="translate(228 40.40000915527344) rotate(0 376.00001525878906 24.399993896484375)"><path d="M12.2 0 C231.71 0, 451.22 0, 739.8 0 M12.2 0 C254.71 0, 497.23 0, 739.8 0 M739.8 0 C747.93 0, 752 4.07, 752 12.2 M739.8 0 C747.93 0, 752 4.07, 752 12.2 M752 12.2 C752 21.42, 752 30.65, 752 36.6 M752 12.2 C752 20.23, 752 28.26, 752 36.6 M752 36.6 C752 44.73, 747.93 48.8, 739.8 48.8 M752 36.6 C752 44.73, 747.93 48.8, 739.8 48.8 M739.8 48.8 C531.63 48.8, 323.47 48.8, 12.2 48.8 M739.8 48.8 C537.82 48.8, 335.84 48.8, 12.2 48.8 M12.2 48.8 C4.07 48.8, 0 44.73, 0 36.6 M12.2 48.8 C4.07 48.8, 0 44.73, 0 36.6 M0 36.6 C0 31.55, 0 26.5, 0 12.2 M0 36.6 C0 28.56, 0 20.51, 0 12.2 M0 12.2 C0 4.07, 4.07 0, 12.2 0 M0 12.2 C0 4.07, 4.07 0, 12.2 0" stroke="#1e1e1e" stroke-width="1" fill="none"></path></g><g stroke-linecap="round" transform="translate(237.60000610351562 103.60000610351562) rotate(0 374.4000244140625 202.00001525878906)"><path d="M32 0 C184.97 0, 337.94 0, 716.8 0 M32 0 C296.23 0, 560.47 0, 716.8 0 M716.8 0 C738.13 0, 748.8 10.67, 748.8 32 M716.8 0 C738.13 0, 748.8 10.67, 748.8 32 M748.8 32 C748.8 109.98, 748.8 187.95, 748.8 372 M748.8 32 C748.8 105.1, 748.8 178.19, 748.8 372 M748.8 372 C748.8 393.33, 738.13 404, 716.8 404 M748.8 372 C748.8 393.33, 738.13 404, 716.8 404 M716.8 404 C567.18 404, 417.56 404, 32 404 M716.8 404 C573.41 404, 430.02 404, 32 404 M32 404 C10.67 404, 0 393.33, 0 372 M32 404 C10.67 404, 0 393.33, 0 372 M0 372 C0 284.04, 0 196.08, 0 32 M0 372 C0 263.61, 0 155.22, 0 32 M0 32 C0 10.67, 10.67 0, 32 0 M0 32 C0 10.67, 10.67 0, 32 0" stroke="#1e1e1e" stroke-width="1" fill="none"></path></g><g stroke-linecap="round" transform="translate(241.19996643066406 516.0000305175781) rotate(0 376.00001525878906 24.399993896484375)"><path d="M12.2 0 C260.91 0, 509.61 0, 739.8 0 M12.2 0 C218.38 0, 424.56 0, 739.8 0 M739.8 0 C747.93 0, 752 4.07, 752 12.2 M739.8 0 C747.93 0, 752 4.07, 752 12.2 M752 12.2 C752 19.67, 752 27.15, 752 36.6 M752 12.2 C752 19.88, 752 27.56, 752 36.6 M752 36.6 C752 44.73, 747.93 48.8, 739.8 48.8 M752 36.6 C752 44.73, 747.93 48.8, 739.8 48.8 M739.8 48.8 C591.82 48.8, 443.85 48.8, 12.2 48.8 M739.8 48.8 C460.68 48.8, 181.56 48.8, 12.2 48.8 M12.2 48.8 C4.07 48.8, 0 44.73, 0 36.6 M12.2 48.8 C4.07 48.8, 0 44.73, 0 36.6 M0 36.6 C0 31.49, 0 26.37, 0 12.2 M0 36.6 C0 30.09, 0 23.57, 0 12.2 M0 12.2 C0 4.07, 4.07 0, 12.2 0 M0 12.2 C0 4.07, 4.07 0, 12.2 0" stroke="#1e1e1e" stroke-width="1" fill="none"></path></g><g stroke-linecap="round" transform="translate(242.4000244140625 49.200042724609375) rotate(0 47.19999694824219 17.5)"><path d="M8.75 0 C33.17 0, 57.59 0, 85.65 0 M8.75 0 C30.07 0, 51.38 0, 85.65 0 M85.65 0 C91.48 0, 94.4 2.92, 94.4 8.75 M85.65 0 C91.48 0, 94.4 2.92, 94.4 8.75 M94.4 8.75 C94.4 13.58, 94.4 18.4, 94.4 26.25 M94.4 8.75 C94.4 13.07, 94.4 17.38, 94.4 26.25 M94.4 26.25 C94.4 32.08, 91.48 35, 85.65 35 M94.4 26.25 C94.4 32.08, 91.48 35, 85.65 35 M85.65 35 C56.46 35, 27.26 35, 8.75 35 M85.65 35 C64.87 35, 44.1 35, 8.75 35 M8.75 35 C2.92 35, 0 32.08, 0 26.25 M8.75 35 C2.92 35, 0 32.08, 0 26.25 M0 26.25 C0 22.12, 0 17.99, 0 8.75 M0 26.25 C0 21.35, 0 16.45, 0 8.75 M0 8.75 C0 2.92, 2.92 0, 8.75 0 M0 8.75 C0 2.92, 2.92 0, 8.75 0" stroke="#1e1e1e" stroke-width="1" fill="none"></path></g><g transform="translate(267.5200424194336 54.200042724609375) rotate(0 22.079978942871094 12.5)"><text x="22.079978942871094" y="0" font-family="Virgil, Segoe UI Emoji" font-size="20px" fill="#1e1e1e" text-anchor="middle" style="white-space: pre;" direction="ltr" dominant-baseline="text-before-edge">Logo</text></g><g stroke-linecap="round" transform="translate(704.8001403808594 46) rotate(0 130.00003051757812 17.5)"><path d="M8.75 0 C73.65 0, 138.55 0, 251.25 0 M8.75 0 C77.23 0, 145.72 0, 251.25 0 M251.25 0 C257.08 0, 260 2.92, 260 8.75 M251.25 0 C257.08 0, 260 2.92, 260 8.75 M260 8.75 C260 13.27, 260 17.79, 260 26.25 M260 8.75 C260 14.81, 260 20.86, 260 26.25 M260 26.25 C260 32.08, 257.08 35, 251.25 35 M260 26.25 C260 32.08, 257.08 35, 251.25 35 M251.25 35 C193.93 35, 136.6 35, 8.75 35 M251.25 35 C200.58 35, 149.92 35, 8.75 35 M8.75 35 C2.92 35, 0 32.08, 0 26.25 M8.75 35 C2.92 35, 0 32.08, 0 26.25 M0 26.25 C0 21.67, 0 17.08, 0 8.75 M0 26.25 C0 19.48, 0 12.72, 0 8.75 M0 8.75 C0 2.92, 2.92 0, 8.75 0 M0 8.75 C0 2.92, 2.92 0, 8.75 0" stroke="#1e1e1e" stroke-width="1" fill="none"></path></g><g transform="translate(720.6902542114258 51) rotate(0 114.10991668701172 12.5)"><text x="114.10991668701172" y="0" font-family="Virgil, Segoe UI Emoji" font-size="20px" fill="#1e1e1e" text-anchor="middle" style="white-space: pre;" direction="ltr" dominant-baseline="text-before-edge">Home  About us   cart</text></g><g stroke-linecap="round" transform="translate(285.6000061035156 122.80001831054688) rotate(0 121.20004272460938 17.79998779296875)"><path d="M8.9 0 C88.93 0, 168.96 0, 233.5 0 M8.9 0 C62.19 0, 115.48 0, 233.5 0 M233.5 0 C239.43 0, 242.4 2.97, 242.4 8.9 M233.5 0 C239.43 0, 242.4 2.97, 242.4 8.9 M242.4 8.9 C242.4 14.56, 242.4 20.21, 242.4 26.7 M242.4 8.9 C242.4 14.68, 242.4 20.46, 242.4 26.7 M242.4 26.7 C242.4 32.63, 239.43 35.6, 233.5 35.6 M242.4 26.7 C242.4 32.63, 239.43 35.6, 233.5 35.6 M233.5 35.6 C187.74 35.6, 141.99 35.6, 8.9 35.6 M233.5 35.6 C150.57 35.6, 67.64 35.6, 8.9 35.6 M8.9 35.6 C2.97 35.6, 0 32.63, 0 26.7 M8.9 35.6 C2.97 35.6, 0 32.63, 0 26.7 M0 26.7 C0 22.28, 0 17.86, 0 8.9 M0 26.7 C0 19.61, 0 12.51, 0 8.9 M0 8.9 C0 2.97, 2.97 0, 8.9 0 M0 8.9 C0 2.97, 2.97 0, 8.9 0" stroke="#1e1e1e" stroke-width="1" fill="none"></path></g><g transform="translate(364.49607849121094 130.60000610351562) rotate(0 42.30397033691406 10)"><text x="42.30397033691406" y="0" font-family="Virgil, Segoe UI Emoji" font-size="16px" fill="#1e1e1e" text-anchor="middle" style="white-space: pre;" direction="ltr" dominant-baseline="text-before-edge">search bar</text></g><g stroke-linecap="round" transform="translate(538.4000549316406 122.79997253417969) rotate(0 67.19998168945312 15.000007629394533)"><path d="M2 1.74 C2 1.74, 2 1.74, 2 1.74 M2 1.74 C2 1.74, 2 1.74, 2 1.74 M0.42 9.64 C2.78 6.93, 5.14 4.22, 8.3 0.59 M0.42 9.64 C3.32 6.31, 6.22 2.98, 8.3 0.59 M0.82 15.29 C3.57 12.12, 6.32 8.95, 13.28 0.95 M0.82 15.29 C4.54 11, 8.27 6.71, 13.28 0.95 M1.21 20.93 C6.03 15.38, 10.85 9.84, 18.93 0.55 M1.21 20.93 C5.62 15.86, 10.03 10.79, 18.93 0.55 M1.61 26.57 C6.69 20.72, 11.78 14.87, 23.91 0.91 M1.61 26.57 C10.46 16.38, 19.32 6.19, 23.91 0.91 M3.97 29.95 C11.04 21.82, 18.1 13.69, 29.56 0.52 M3.97 29.95 C12.42 20.22, 20.88 10.5, 29.56 0.52 M9.61 29.56 C15.88 22.35, 22.14 15.15, 34.54 0.88 M9.61 29.56 C16.07 22.13, 22.53 14.7, 34.54 0.88 M14.6 29.92 C24.05 19.04, 33.51 8.16, 40.19 0.48 M14.6 29.92 C23.09 20.15, 31.57 10.39, 40.19 0.48 M20.24 29.52 C26.81 21.97, 33.37 14.42, 45.17 0.84 M20.24 29.52 C26.51 22.31, 32.78 15.1, 45.17 0.84 M25.23 29.88 C33.29 20.61, 41.35 11.34, 50.82 0.45 M25.23 29.88 C35.25 18.35, 45.27 6.83, 50.82 0.45 M30.87 29.49 C38.15 21.12, 45.42 12.75, 55.8 0.81 M30.87 29.49 C36.14 23.43, 41.4 17.38, 55.8 0.81 M35.86 29.85 C42.84 21.82, 49.82 13.79, 60.79 1.17 M35.86 29.85 C45.08 19.24, 54.31 8.63, 60.79 1.17 M41.5 29.45 C49.46 20.3, 57.42 11.14, 66.43 0.77 M41.5 29.45 C50.11 19.55, 58.72 9.65, 66.43 0.77 M46.49 29.81 C54.89 20.16, 63.28 10.5, 71.42 1.13 M46.49 29.81 C55.13 19.88, 63.76 9.94, 71.42 1.13 M52.13 29.42 C61.66 18.45, 71.2 7.49, 77.06 0.74 M52.13 29.42 C60.39 19.92, 68.65 10.42, 77.06 0.74 M57.12 29.78 C66.15 19.4, 75.17 9.01, 82.05 1.1 M57.12 29.78 C65.13 20.57, 73.13 11.36, 82.05 1.1 M62.11 30.14 C69.09 22.11, 76.07 14.07, 87.69 0.7 M62.11 30.14 C67.66 23.75, 73.21 17.37, 87.69 0.7 M67.75 29.74 C76.16 20.07, 84.57 10.39, 92.68 1.06 M67.75 29.74 C75.59 20.73, 83.43 11.71, 92.68 1.06 M72.74 30.1 C78.81 23.12, 84.88 16.13, 98.32 0.67 M72.74 30.1 C80.93 20.68, 89.13 11.25, 98.32 0.67 M78.38 29.71 C84.59 22.57, 90.79 15.43, 103.31 1.03 M78.38 29.71 C85.04 22.04, 91.7 14.38, 103.31 1.03 M83.37 30.07 C90.26 22.14, 97.16 14.2, 108.3 1.39 M83.37 30.07 C91.59 20.61, 99.82 11.15, 108.3 1.39 M89.01 29.67 C98.67 18.56, 108.34 7.44, 113.94 1 M89.01 29.67 C97.5 19.91, 105.99 10.14, 113.94 1 M94 30.03 C100.14 22.96, 106.29 15.89, 118.93 1.36 M94 30.03 C99.09 24.17, 104.19 18.31, 118.93 1.36 M99.64 29.64 C105.85 22.49, 112.06 15.35, 124.57 0.96 M99.64 29.64 C105.02 23.46, 110.39 17.27, 124.57 0.96 M104.63 30 C113.77 19.48, 122.92 8.96, 130.21 0.57 M104.63 30 C111.61 21.97, 118.58 13.94, 130.21 0.57 M109.61 30.36 C115.13 24.01, 120.65 17.66, 133.23 3.19 M109.61 30.36 C118.93 19.65, 128.24 8.94, 133.23 3.19 M115.26 29.97 C120.48 23.96, 125.7 17.95, 134.28 8.08 M115.26 29.97 C121.62 22.65, 127.98 15.33, 134.28 8.08 M120.24 30.33 C125.24 24.58, 130.23 18.83, 134.68 13.72 M120.24 30.33 C124.55 25.37, 128.86 20.41, 134.68 13.72 M125.89 29.93 C127.74 27.8, 129.6 25.66, 134.42 20.12 M125.89 29.93 C128.95 26.41, 132.01 22.89, 134.42 20.12" stroke="#ffc9c9" stroke-width="0.5" fill="none"></path><path d="M7.5 0 C41.61 0, 75.72 0, 126.9 0 M7.5 0 C50.78 0, 94.07 0, 126.9 0 M126.9 0 C131.9 0, 134.4 2.5, 134.4 7.5 M126.9 0 C131.9 0, 134.4 2.5, 134.4 7.5 M134.4 7.5 C134.4 11.3, 134.4 15.1, 134.4 22.5 M134.4 7.5 C134.4 10.94, 134.4 14.38, 134.4 22.5 M134.4 22.5 C134.4 27.5, 131.9 30, 126.9 30 M134.4 22.5 C134.4 27.5, 131.9 30, 126.9 30 M126.9 30 C85.91 30, 44.93 30, 7.5 30 M126.9 30 C101.93 30, 76.97 30, 7.5 30 M7.5 30 C2.5 30, 0 27.5, 0 22.5 M7.5 30 C2.5 30, 0 27.5, 0 22.5 M0 22.5 C0 16.72, 0 10.94, 0 7.5 M0 22.5 C0 18.47, 0 14.44, 0 7.5 M0 7.5 C0 2.5, 2.5 0, 7.5 0 M0 7.5 C0 2.5, 2.5 0, 7.5 0" stroke="#1e1e1e" stroke-width="1" fill="none"></path></g><g transform="translate(550.320068359375 127.79998016357422) rotate(0 55.27996826171875 10)"><text x="55.27996826171875" y="0" font-family="Virgil, Segoe UI Emoji" font-size="16px" fill="#1e1e1e" text-anchor="middle" style="white-space: pre;" direction="ltr" dominant-baseline="text-before-edge">search button</text></g><g stroke-linecap="round" transform="translate(260.8000183105469 177.20001220703125) rotate(0 352.3999938964844 151.60000610351562)"><path d="M32 0 C215.37 0, 398.74 0, 672.8 0 M32 0 C237.58 0, 443.16 0, 672.8 0 M672.8 0 C694.13 0, 704.8 10.67, 704.8 32 M672.8 0 C694.13 0, 704.8 10.67, 704.8 32 M704.8 32 C704.8 101.29, 704.8 170.58, 704.8 271.2 M704.8 32 C704.8 104.45, 704.8 176.9, 704.8 271.2 M704.8 271.2 C704.8 292.53, 694.13 303.2, 672.8 303.2 M704.8 271.2 C704.8 292.53, 694.13 303.2, 672.8 303.2 M672.8 303.2 C455.72 303.2, 238.63 303.2, 32 303.2 M672.8 303.2 C522.36 303.2, 371.91 303.2, 32 303.2 M32 303.2 C10.67 303.2, 0 292.53, 0 271.2 M32 303.2 C10.67 303.2, 0 292.53, 0 271.2 M0 271.2 C0 179.92, 0 88.64, 0 32 M0 271.2 C0 187.1, 0 102.99, 0 32 M0 32 C0 10.67, 10.67 0, 32 0 M0 32 C0 10.67, 10.67 0, 32 0" stroke="#1e1e1e" stroke-width="1" fill="none"></path></g><g stroke-linecap="round" transform="translate(288.0000305175781 206.80001831054688) rotate(0 46.399993896484375 61.19999694824219)"><path d="M23.2 0 C32.82 0, 42.43 0, 69.6 0 M23.2 0 C36.01 0, 48.82 0, 69.6 0 M69.6 0 C85.07 0, 92.8 7.73, 92.8 23.2 M69.6 0 C85.07 0, 92.8 7.73, 92.8 23.2 M92.8 23.2 C92.8 43.47, 92.8 63.73, 92.8 99.2 M92.8 23.2 C92.8 49.15, 92.8 75.1, 92.8 99.2 M92.8 99.2 C92.8 114.67, 85.07 122.4, 69.6 122.4 M92.8 99.2 C92.8 114.67, 85.07 122.4, 69.6 122.4 M69.6 122.4 C51.65 122.4, 33.7 122.4, 23.2 122.4 M69.6 122.4 C57.54 122.4, 45.47 122.4, 23.2 122.4 M23.2 122.4 C7.73 122.4, 0 114.67, 0 99.2 M23.2 122.4 C7.73 122.4, 0 114.67, 0 99.2 M0 99.2 C0 79.75, 0 60.31, 0 23.2 M0 99.2 C0 71.63, 0 44.07, 0 23.2 M0 23.2 C0 7.73, 7.73 0, 23.2 0 M0 23.2 C0 7.73, 7.73 0, 23.2 0" stroke="#1e1e1e" stroke-width="1" fill="none"></path></g><g stroke-linecap="round" transform="translate(303.2000427246094 218) rotate(0 26.399993896484375 24.5)"><path d="M52.8 24.5 C52.8 25.92, 52.66 27.36, 52.4 28.75 C52.13 30.15, 51.73 31.55, 51.21 32.88 C50.69 34.21, 50.03 35.52, 49.26 36.75 C48.5 37.98, 47.61 39.16, 46.62 40.25 C45.64 41.33, 44.54 42.36, 43.37 43.27 C42.2 44.18, 40.92 45.01, 39.6 45.72 C38.28 46.43, 36.87 47.04, 35.43 47.52 C33.99 48.01, 32.49 48.38, 30.98 48.63 C29.48 48.87, 27.93 49, 26.4 49 C24.87 49, 23.32 48.87, 21.82 48.63 C20.31 48.38, 18.81 48.01, 17.37 47.52 C15.93 47.04, 14.52 46.43, 13.2 45.72 C11.88 45.01, 10.6 44.18, 9.43 43.27 C8.26 42.36, 7.16 41.33, 6.18 40.25 C5.19 39.16, 4.3 37.98, 3.54 36.75 C2.77 35.52, 2.11 34.21, 1.59 32.88 C1.07 31.55, 0.67 30.15, 0.4 28.75 C0.14 27.36, 0 25.92, 0 24.5 C0 23.08, 0.14 21.64, 0.4 20.25 C0.67 18.85, 1.07 17.45, 1.59 16.12 C2.11 14.79, 2.77 13.48, 3.54 12.25 C4.3 11.02, 5.19 9.84, 6.18 8.75 C7.16 7.67, 8.26 6.64, 9.43 5.73 C10.6 4.82, 11.88 3.99, 13.2 3.28 C14.52 2.57, 15.93 1.96, 17.37 1.48 C18.81 0.99, 20.31 0.62, 21.82 0.37 C23.32 0.13, 24.87 0, 26.4 0 C27.93 0, 29.48 0.13, 30.98 0.37 C32.49 0.62, 33.99 0.99, 35.43 1.48 C36.87 1.96, 38.28 2.57, 39.6 3.28 C40.92 3.99, 42.2 4.82, 43.37 5.73 C44.54 6.64, 45.64 7.67, 46.62 8.75 C47.61 9.84, 48.5 11.02, 49.26 12.25 C50.03 13.48, 50.69 14.79, 51.21 16.12 C51.73 17.45, 52.13 18.85, 52.4 20.25 C52.66 21.64, 52.73 23.79, 52.8 24.5 C52.87 25.21, 52.87 23.79, 52.8 24.5" stroke="#1e1e1e" stroke-width="1" fill="none"></path></g><g transform="translate(318.6084320454422 232.6758838609296) rotate(0 10.823989868164062 10)"><text x="10.823989868164062" y="0" font-family="Virgil, Segoe UI Emoji" font-size="16px" fill="#1e1e1e" text-anchor="middle" style="white-space: pre;" direction="ltr" dominant-baseline="text-before-edge">img</text></g><g transform="translate(312.6000061035156 274.6000061035156) rotate(0 25.67998504638672 20)"><text x="25.67998504638672" y="0" font-family="Virgil, Segoe UI Emoji" font-size="16px" fill="#1e1e1e" text-anchor="middle" style="white-space: pre;" direction="ltr" dominant-baseline="text-before-edge">4.5 *</text><text x="25.67998504638672" y="20" font-family="Virgil, Segoe UI Emoji" font-size="16px" fill="#1e1e1e" text-anchor="middle" style="white-space: pre;" direction="ltr" dominant-baseline="text-before-edge">45 Min</text></g><g stroke-linecap="round" transform="translate(438.20001220703125 207.8000030517578) rotate(0 46.399993896484375 61.19999694824219)"><path d="M23.2 0 C40.74 0, 58.28 0, 69.6 0 M23.2 0 C38.47 0, 53.73 0, 69.6 0 M69.6 0 C85.07 0, 92.8 7.73, 92.8 23.2 M69.6 0 C85.07 0, 92.8 7.73, 92.8 23.2 M92.8 23.2 C92.8 44.94, 92.8 66.69, 92.8 99.2 M92.8 23.2 C92.8 44.3, 92.8 65.4, 92.8 99.2 M92.8 99.2 C92.8 114.67, 85.07 122.4, 69.6 122.4 M92.8 99.2 C92.8 114.67, 85.07 122.4, 69.6 122.4 M69.6 122.4 C60 122.4, 50.39 122.4, 23.2 122.4 M69.6 122.4 C54.3 122.4, 39.01 122.4, 23.2 122.4 M23.2 122.4 C7.73 122.4, 0 114.67, 0 99.2 M23.2 122.4 C7.73 122.4, 0 114.67, 0 99.2 M0 99.2 C0 70.33, 0 41.45, 0 23.2 M0 99.2 C0 78.45, 0 57.69, 0 23.2 M0 23.2 C0 7.73, 7.73 0, 23.2 0 M0 23.2 C0 7.73, 7.73 0, 23.2 0" stroke="#1e1e1e" stroke-width="1" fill="none"></path></g><g stroke-linecap="round" transform="translate(453.4000244140625 218.99998474121094) rotate(0 26.399993896484375 24.5)"><path d="M52.8 24.5 C52.8 25.92, 52.66 27.36, 52.4 28.75 C52.13 30.15, 51.73 31.55, 51.21 32.88 C50.69 34.21, 50.03 35.52, 49.26 36.75 C48.5 37.98, 47.61 39.16, 46.62 40.25 C45.64 41.33, 44.54 42.36, 43.37 43.27 C42.2 44.18, 40.92 45.01, 39.6 45.72 C38.28 46.43, 36.87 47.04, 35.43 47.52 C33.99 48.01, 32.49 48.38, 30.98 48.63 C29.48 48.87, 27.93 49, 26.4 49 C24.87 49, 23.32 48.87, 21.82 48.63 C20.31 48.38, 18.81 48.01, 17.37 47.52 C15.93 47.04, 14.52 46.43, 13.2 45.72 C11.88 45.01, 10.6 44.18, 9.43 43.27 C8.26 42.36, 7.16 41.33, 6.18 40.25 C5.19 39.16, 4.3 37.98, 3.54 36.75 C2.77 35.52, 2.11 34.21, 1.59 32.88 C1.07 31.55, 0.67 30.15, 0.4 28.75 C0.14 27.36, 0 25.92, 0 24.5 C0 23.08, 0.14 21.64, 0.4 20.25 C0.67 18.85, 1.07 17.45, 1.59 16.12 C2.11 14.79, 2.77 13.48, 3.54 12.25 C4.3 11.02, 5.19 9.84, 6.18 8.75 C7.16 7.67, 8.26 6.64, 9.43 5.73 C10.6 4.82, 11.88 3.99, 13.2 3.28 C14.52 2.57, 15.93 1.96, 17.37 1.48 C18.81 0.99, 20.31 0.62, 21.82 0.37 C23.32 0.13, 24.87 0, 26.4 0 C27.93 0, 29.48 0.13, 30.98 0.37 C32.49 0.62, 33.99 0.99, 35.43 1.48 C36.87 1.96, 38.28 2.57, 39.6 3.28 C40.92 3.99, 42.2 4.82, 43.37 5.73 C44.54 6.64, 45.64 7.67, 46.62 8.75 C47.61 9.84, 48.5 11.02, 49.26 12.25 C50.03 13.48, 50.69 14.79, 51.21 16.12 C51.73 17.45, 52.13 18.85, 52.4 20.25 C52.66 21.64, 52.73 23.79, 52.8 24.5 C52.87 25.21, 52.87 23.79, 52.8 24.5" stroke="#1e1e1e" stroke-width="1" fill="none"></path></g><g transform="translate(468.80841373489534 233.67586860214053) rotate(0 10.823989868164062 10)"><text x="10.823989868164062" y="0" font-family="Virgil, Segoe UI Emoji" font-size="16px" fill="#1e1e1e" text-anchor="middle" style="white-space: pre;" direction="ltr" dominant-baseline="text-before-edge">img</text></g><g transform="translate(462.79998779296875 275.59999084472656) rotate(0 25.67998504638672 20)"><text x="25.67998504638672" y="0" font-family="Virgil, Segoe UI Emoji" font-size="16px" fill="#1e1e1e" text-anchor="middle" style="white-space: pre;" direction="ltr" dominant-baseline="text-before-edge">4.5 *</text><text x="25.67998504638672" y="20" font-family="Virgil, Segoe UI Emoji" font-size="16px" fill="#1e1e1e" text-anchor="middle" style="white-space: pre;" direction="ltr" dominant-baseline="text-before-edge">45 Min</text></g><g stroke-linecap="round" transform="translate(596 209.6000213623047) rotate(0 46.399993896484375 61.19999694824219)"><path d="M23.2 0 C36 0, 48.8 0, 69.6 0 M23.2 0 C34.65 0, 46.09 0, 69.6 0 M69.6 0 C85.07 0, 92.8 7.73, 92.8 23.2 M69.6 0 C85.07 0, 92.8 7.73, 92.8 23.2 M92.8 23.2 C92.8 52.05, 92.8 80.9, 92.8 99.2 M92.8 23.2 C92.8 43.73, 92.8 64.27, 92.8 99.2 M92.8 99.2 C92.8 114.67, 85.07 122.4, 69.6 122.4 M92.8 99.2 C92.8 114.67, 85.07 122.4, 69.6 122.4 M69.6 122.4 C58.65 122.4, 47.69 122.4, 23.2 122.4 M69.6 122.4 C56.61 122.4, 43.62 122.4, 23.2 122.4 M23.2 122.4 C7.73 122.4, 0 114.67, 0 99.2 M23.2 122.4 C7.73 122.4, 0 114.67, 0 99.2 M0 99.2 C0 81.54, 0 63.88, 0 23.2 M0 99.2 C0 70.78, 0 42.37, 0 23.2 M0 23.2 C0 7.73, 7.73 0, 23.2 0 M0 23.2 C0 7.73, 7.73 0, 23.2 0" stroke="#1e1e1e" stroke-width="1" fill="none"></path></g><g stroke-linecap="round" transform="translate(614.4000244140625 217.59999084472656) rotate(0 26.399993896484375 24.5)"><path d="M52.8 24.5 C52.8 25.92, 52.66 27.36, 52.4 28.75 C52.13 30.15, 51.73 31.55, 51.21 32.88 C50.69 34.21, 50.03 35.52, 49.26 36.75 C48.5 37.98, 47.61 39.16, 46.62 40.25 C45.64 41.33, 44.54 42.36, 43.37 43.27 C42.2 44.18, 40.92 45.01, 39.6 45.72 C38.28 46.43, 36.87 47.04, 35.43 47.52 C33.99 48.01, 32.49 48.38, 30.98 48.63 C29.48 48.87, 27.93 49, 26.4 49 C24.87 49, 23.32 48.87, 21.82 48.63 C20.31 48.38, 18.81 48.01, 17.37 47.52 C15.93 47.04, 14.52 46.43, 13.2 45.72 C11.88 45.01, 10.6 44.18, 9.43 43.27 C8.26 42.36, 7.16 41.33, 6.18 40.25 C5.19 39.16, 4.3 37.98, 3.54 36.75 C2.77 35.52, 2.11 34.21, 1.59 32.88 C1.07 31.55, 0.67 30.15, 0.4 28.75 C0.14 27.36, 0 25.92, 0 24.5 C0 23.08, 0.14 21.64, 0.4 20.25 C0.67 18.85, 1.07 17.45, 1.59 16.12 C2.11 14.79, 2.77 13.48, 3.54 12.25 C4.3 11.02, 5.19 9.84, 6.18 8.75 C7.16 7.67, 8.26 6.64, 9.43 5.73 C10.6 4.82, 11.88 3.99, 13.2 3.28 C14.52 2.57, 15.93 1.96, 17.37 1.48 C18.81 0.99, 20.31 0.62, 21.82 0.37 C23.32 0.13, 24.87 0, 26.4 0 C27.93 0, 29.48 0.13, 30.98 0.37 C32.49 0.62, 33.99 0.99, 35.43 1.48 C36.87 1.96, 38.28 2.57, 39.6 3.28 C40.92 3.99, 42.2 4.82, 43.37 5.73 C44.54 6.64, 45.64 7.67, 46.62 8.75 C47.61 9.84, 48.5 11.02, 49.26 12.25 C50.03 13.48, 50.69 14.79, 51.21 16.12 C51.73 17.45, 52.13 18.85, 52.4 20.25 C52.66 21.64, 52.73 23.79, 52.8 24.5 C52.87 25.21, 52.87 23.79, 52.8 24.5" stroke="#1e1e1e" stroke-width="1" fill="none"></path></g><g transform="translate(629.8084137348951 232.27587470565615) rotate(0 10.823989868164062 10)"><text x="10.823989868164062" y="0" font-family="Virgil, Segoe UI Emoji" font-size="16px" fill="#1e1e1e" text-anchor="middle" style="white-space: pre;" direction="ltr" dominant-baseline="text-before-edge">img</text></g><g transform="translate(616.5999755859375 272.59999084472656) rotate(0 25.67998504638672 20)"><text x="25.67998504638672" y="0" font-family="Virgil, Segoe UI Emoji" font-size="16px" fill="#1e1e1e" text-anchor="middle" style="white-space: pre;" direction="ltr" dominant-baseline="text-before-edge">4.5 *</text><text x="25.67998504638672" y="20" font-family="Virgil, Segoe UI Emoji" font-size="16px" fill="#1e1e1e" text-anchor="middle" style="white-space: pre;" direction="ltr" dominant-baseline="text-before-edge">45 Min</text></g><g stroke-linecap="round" transform="translate(735.6000366210938 209.3999786376953) rotate(0 46.399993896484375 61.19999694824219)"><path d="M23.2 0 C34.96 0, 46.72 0, 69.6 0 M23.2 0 C33.85 0, 44.5 0, 69.6 0 M69.6 0 C85.07 0, 92.8 7.73, 92.8 23.2 M69.6 0 C85.07 0, 92.8 7.73, 92.8 23.2 M92.8 23.2 C92.8 49.29, 92.8 75.38, 92.8 99.2 M92.8 23.2 C92.8 39.09, 92.8 54.98, 92.8 99.2 M92.8 99.2 C92.8 114.67, 85.07 122.4, 69.6 122.4 M92.8 99.2 C92.8 114.67, 85.07 122.4, 69.6 122.4 M69.6 122.4 C51.72 122.4, 33.85 122.4, 23.2 122.4 M69.6 122.4 C57.14 122.4, 44.67 122.4, 23.2 122.4 M23.2 122.4 C7.73 122.4, 0 114.67, 0 99.2 M23.2 122.4 C7.73 122.4, 0 114.67, 0 99.2 M0 99.2 C0 83.13, 0 67.07, 0 23.2 M0 99.2 C0 71.19, 0 43.17, 0 23.2 M0 23.2 C0 7.73, 7.73 0, 23.2 0 M0 23.2 C0 7.73, 7.73 0, 23.2 0" stroke="#1e1e1e" stroke-width="1" fill="none"></path></g><g stroke-linecap="round" transform="translate(752.4000244140625 221.40000915527344) rotate(0 26.399993896484375 24.5)"><path d="M52.8 24.5 C52.8 25.92, 52.66 27.36, 52.4 28.75 C52.13 30.15, 51.73 31.55, 51.21 32.88 C50.69 34.21, 50.03 35.52, 49.26 36.75 C48.5 37.98, 47.61 39.16, 46.62 40.25 C45.64 41.33, 44.54 42.36, 43.37 43.27 C42.2 44.18, 40.92 45.01, 39.6 45.72 C38.28 46.43, 36.87 47.04, 35.43 47.52 C33.99 48.01, 32.49 48.38, 30.98 48.63 C29.48 48.87, 27.93 49, 26.4 49 C24.87 49, 23.32 48.87, 21.82 48.63 C20.31 48.38, 18.81 48.01, 17.37 47.52 C15.93 47.04, 14.52 46.43, 13.2 45.72 C11.88 45.01, 10.6 44.18, 9.43 43.27 C8.26 42.36, 7.16 41.33, 6.18 40.25 C5.19 39.16, 4.3 37.98, 3.54 36.75 C2.77 35.52, 2.11 34.21, 1.59 32.88 C1.07 31.55, 0.67 30.15, 0.4 28.75 C0.14 27.36, 0 25.92, 0 24.5 C0 23.08, 0.14 21.64, 0.4 20.25 C0.67 18.85, 1.07 17.45, 1.59 16.12 C2.11 14.79, 2.77 13.48, 3.54 12.25 C4.3 11.02, 5.19 9.84, 6.18 8.75 C7.16 7.67, 8.26 6.64, 9.43 5.73 C10.6 4.82, 11.88 3.99, 13.2 3.28 C14.52 2.57, 15.93 1.96, 17.37 1.48 C18.81 0.99, 20.31 0.62, 21.82 0.37 C23.32 0.13, 24.87 0, 26.4 0 C27.93 0, 29.48 0.13, 30.98 0.37 C32.49 0.62, 33.99 0.99, 35.43 1.48 C36.87 1.96, 38.28 2.57, 39.6 3.28 C40.92 3.99, 42.2 4.82, 43.37 5.73 C44.54 6.64, 45.64 7.67, 46.62 8.75 C47.61 9.84, 48.5 11.02, 49.26 12.25 C50.03 13.48, 50.69 14.79, 51.21 16.12 C51.73 17.45, 52.13 18.85, 52.4 20.25 C52.66 21.64, 52.73 23.79, 52.8 24.5 C52.87 25.21, 52.87 23.79, 52.8 24.5" stroke="#1e1e1e" stroke-width="1" fill="none"></path></g><g transform="translate(767.8084137348951 236.07589301620303) rotate(0 10.823989868164062 10)"><text x="10.823989868164062" y="0" font-family="Virgil, Segoe UI Emoji" font-size="16px" fill="#1e1e1e" text-anchor="middle" style="white-space: pre;" direction="ltr" dominant-baseline="text-before-edge">img</text></g><g transform="translate(761.7999877929688 278.00001525878906) rotate(0 25.67998504638672 20)"><text x="25.67998504638672" y="0" font-family="Virgil, Segoe UI Emoji" font-size="16px" fill="#1e1e1e" text-anchor="middle" style="white-space: pre;" direction="ltr" dominant-baseline="text-before-edge">4.5 *</text><text x="25.67998504638672" y="20" font-family="Virgil, Segoe UI Emoji" font-size="16px" fill="#1e1e1e" text-anchor="middle" style="white-space: pre;" direction="ltr" dominant-baseline="text-before-edge">45 Min</text></g><g stroke-linecap="round" transform="translate(280.79998779296875 344.8000030517578) rotate(0 46.399993896484375 61.19999694824219)"><path d="M23.2 0 C38.56 0, 53.93 0, 69.6 0 M23.2 0 C39.7 0, 56.21 0, 69.6 0 M69.6 0 C85.07 0, 92.8 7.73, 92.8 23.2 M69.6 0 C85.07 0, 92.8 7.73, 92.8 23.2 M92.8 23.2 C92.8 52.64, 92.8 82.09, 92.8 99.2 M92.8 23.2 C92.8 50.96, 92.8 78.73, 92.8 99.2 M92.8 99.2 C92.8 114.67, 85.07 122.4, 69.6 122.4 M92.8 99.2 C92.8 114.67, 85.07 122.4, 69.6 122.4 M69.6 122.4 C59.07 122.4, 48.54 122.4, 23.2 122.4 M69.6 122.4 C58.6 122.4, 47.6 122.4, 23.2 122.4 M23.2 122.4 C7.73 122.4, 0 114.67, 0 99.2 M23.2 122.4 C7.73 122.4, 0 114.67, 0 99.2 M0 99.2 C0 74.63, 0 50.05, 0 23.2 M0 99.2 C0 80.36, 0 61.53, 0 23.2 M0 23.2 C0 7.73, 7.73 0, 23.2 0 M0 23.2 C0 7.73, 7.73 0, 23.2 0" stroke="#1e1e1e" stroke-width="1" fill="none"></path></g><g stroke-linecap="round" transform="translate(296 355.99998474121094) rotate(0 26.399993896484375 24.5)"><path d="M52.8 24.5 C52.8 25.92, 52.66 27.36, 52.4 28.75 C52.13 30.15, 51.73 31.55, 51.21 32.88 C50.69 34.21, 50.03 35.52, 49.26 36.75 C48.5 37.98, 47.61 39.16, 46.62 40.25 C45.64 41.33, 44.54 42.36, 43.37 43.27 C42.2 44.18, 40.92 45.01, 39.6 45.72 C38.28 46.43, 36.87 47.04, 35.43 47.52 C33.99 48.01, 32.49 48.38, 30.98 48.63 C29.48 48.87, 27.93 49, 26.4 49 C24.87 49, 23.32 48.87, 21.82 48.63 C20.31 48.38, 18.81 48.01, 17.37 47.52 C15.93 47.04, 14.52 46.43, 13.2 45.72 C11.88 45.01, 10.6 44.18, 9.43 43.27 C8.26 42.36, 7.16 41.33, 6.18 40.25 C5.19 39.16, 4.3 37.98, 3.54 36.75 C2.77 35.52, 2.11 34.21, 1.59 32.88 C1.07 31.55, 0.67 30.15, 0.4 28.75 C0.14 27.36, 0 25.92, 0 24.5 C0 23.08, 0.14 21.64, 0.4 20.25 C0.67 18.85, 1.07 17.45, 1.59 16.12 C2.11 14.79, 2.77 13.48, 3.54 12.25 C4.3 11.02, 5.19 9.84, 6.18 8.75 C7.16 7.67, 8.26 6.64, 9.43 5.73 C10.6 4.82, 11.88 3.99, 13.2 3.28 C14.52 2.57, 15.93 1.96, 17.37 1.48 C18.81 0.99, 20.31 0.62, 21.82 0.37 C23.32 0.13, 24.87 0, 26.4 0 C27.93 0, 29.48 0.13, 30.98 0.37 C32.49 0.62, 33.99 0.99, 35.43 1.48 C36.87 1.96, 38.28 2.57, 39.6 3.28 C40.92 3.99, 42.2 4.82, 43.37 5.73 C44.54 6.64, 45.64 7.67, 46.62 8.75 C47.61 9.84, 48.5 11.02, 49.26 12.25 C50.03 13.48, 50.69 14.79, 51.21 16.12 C51.73 17.45, 52.13 18.85, 52.4 20.25 C52.66 21.64, 52.73 23.79, 52.8 24.5 C52.87 25.21, 52.87 23.79, 52.8 24.5" stroke="#1e1e1e" stroke-width="1" fill="none"></path></g><g transform="translate(311.40838932083284 370.67586860214055) rotate(0 10.823989868164062 10)"><text x="10.823989868164062" y="0" font-family="Virgil, Segoe UI Emoji" font-size="16px" fill="#1e1e1e" text-anchor="middle" style="white-space: pre;" direction="ltr" dominant-baseline="text-before-edge">img</text></g><g transform="translate(305.39996337890625 412.59999084472656) rotate(0 25.67998504638672 20)"><text x="25.67998504638672" y="0" font-family="Virgil, Segoe UI Emoji" font-size="16px" fill="#1e1e1e" text-anchor="middle" style="white-space: pre;" direction="ltr" dominant-baseline="text-before-edge">4.5 *</text><text x="25.67998504638672" y="20" font-family="Virgil, Segoe UI Emoji" font-size="16px" fill="#1e1e1e" text-anchor="middle" style="white-space: pre;" direction="ltr" dominant-baseline="text-before-edge">45 Min</text></g><g stroke-linecap="round" transform="translate(434.20001220703125 343.6000213623047) rotate(0 46.399993896484375 61.19999694824219)"><path d="M23.2 0 C33.34 0, 43.48 0, 69.6 0 M23.2 0 C32.92 0, 42.63 0, 69.6 0 M69.6 0 C85.07 0, 92.8 7.73, 92.8 23.2 M69.6 0 C85.07 0, 92.8 7.73, 92.8 23.2 M92.8 23.2 C92.8 42.86, 92.8 62.52, 92.8 99.2 M92.8 23.2 C92.8 47.43, 92.8 71.66, 92.8 99.2 M92.8 99.2 C92.8 114.67, 85.07 122.4, 69.6 122.4 M92.8 99.2 C92.8 114.67, 85.07 122.4, 69.6 122.4 M69.6 122.4 C59.55 122.4, 49.5 122.4, 23.2 122.4 M69.6 122.4 C53.85 122.4, 38.09 122.4, 23.2 122.4 M23.2 122.4 C7.73 122.4, 0 114.67, 0 99.2 M23.2 122.4 C7.73 122.4, 0 114.67, 0 99.2 M0 99.2 C0 76.06, 0 52.92, 0 23.2 M0 99.2 C0 82.67, 0 66.13, 0 23.2 M0 23.2 C0 7.73, 7.73 0, 23.2 0 M0 23.2 C0 7.73, 7.73 0, 23.2 0" stroke="#1e1e1e" stroke-width="1" fill="none"></path></g><g stroke-linecap="round" transform="translate(449.4000244140625 354.8000030517578) rotate(0 26.399993896484375 24.5)"><path d="M52.8 24.5 C52.8 25.92, 52.66 27.36, 52.4 28.75 C52.13 30.15, 51.73 31.55, 51.21 32.88 C50.69 34.21, 50.03 35.52, 49.26 36.75 C48.5 37.98, 47.61 39.16, 46.62 40.25 C45.64 41.33, 44.54 42.36, 43.37 43.27 C42.2 44.18, 40.92 45.01, 39.6 45.72 C38.28 46.43, 36.87 47.04, 35.43 47.52 C33.99 48.01, 32.49 48.38, 30.98 48.63 C29.48 48.87, 27.93 49, 26.4 49 C24.87 49, 23.32 48.87, 21.82 48.63 C20.31 48.38, 18.81 48.01, 17.37 47.52 C15.93 47.04, 14.52 46.43, 13.2 45.72 C11.88 45.01, 10.6 44.18, 9.43 43.27 C8.26 42.36, 7.16 41.33, 6.18 40.25 C5.19 39.16, 4.3 37.98, 3.54 36.75 C2.77 35.52, 2.11 34.21, 1.59 32.88 C1.07 31.55, 0.67 30.15, 0.4 28.75 C0.14 27.36, 0 25.92, 0 24.5 C0 23.08, 0.14 21.64, 0.4 20.25 C0.67 18.85, 1.07 17.45, 1.59 16.12 C2.11 14.79, 2.77 13.48, 3.54 12.25 C4.3 11.02, 5.19 9.84, 6.18 8.75 C7.16 7.67, 8.26 6.64, 9.43 5.73 C10.6 4.82, 11.88 3.99, 13.2 3.28 C14.52 2.57, 15.93 1.96, 17.37 1.48 C18.81 0.99, 20.31 0.62, 21.82 0.37 C23.32 0.13, 24.87 0, 26.4 0 C27.93 0, 29.48 0.13, 30.98 0.37 C32.49 0.62, 33.99 0.99, 35.43 1.48 C36.87 1.96, 38.28 2.57, 39.6 3.28 C40.92 3.99, 42.2 4.82, 43.37 5.73 C44.54 6.64, 45.64 7.67, 46.62 8.75 C47.61 9.84, 48.5 11.02, 49.26 12.25 C50.03 13.48, 50.69 14.79, 51.21 16.12 C51.73 17.45, 52.13 18.85, 52.4 20.25 C52.66 21.64, 52.73 23.79, 52.8 24.5 C52.87 25.21, 52.87 23.79, 52.8 24.5" stroke="#1e1e1e" stroke-width="1" fill="none"></path></g><g transform="translate(464.80841373489534 369.47588691268743) rotate(0 10.823989868164062 10)"><text x="10.823989868164062" y="0" font-family="Virgil, Segoe UI Emoji" font-size="16px" fill="#1e1e1e" text-anchor="middle" style="white-space: pre;" direction="ltr" dominant-baseline="text-before-edge">img</text></g><g transform="translate(458.79998779296875 411.40000915527344) rotate(0 25.67998504638672 20)"><text x="25.67998504638672" y="0" font-family="Virgil, Segoe UI Emoji" font-size="16px" fill="#1e1e1e" text-anchor="middle" style="white-space: pre;" direction="ltr" dominant-baseline="text-before-edge">4.5 *</text><text x="25.67998504638672" y="20" font-family="Virgil, Segoe UI Emoji" font-size="16px" fill="#1e1e1e" text-anchor="middle" style="white-space: pre;" direction="ltr" dominant-baseline="text-before-edge">45 Min</text></g><g stroke-linecap="round" transform="translate(592.2000122070312 347.20005798339844) rotate(0 46.399993896484375 61.19999694824219)"><path d="M23.2 0 C34.17 0, 45.14 0, 69.6 0 M23.2 0 C32.89 0, 42.59 0, 69.6 0 M69.6 0 C85.07 0, 92.8 7.73, 92.8 23.2 M69.6 0 C85.07 0, 92.8 7.73, 92.8 23.2 M92.8 23.2 C92.8 43.1, 92.8 63, 92.8 99.2 M92.8 23.2 C92.8 52.59, 92.8 81.98, 92.8 99.2 M92.8 99.2 C92.8 114.67, 85.07 122.4, 69.6 122.4 M92.8 99.2 C92.8 114.67, 85.07 122.4, 69.6 122.4 M69.6 122.4 C59.63 122.4, 49.67 122.4, 23.2 122.4 M69.6 122.4 C57.07 122.4, 44.54 122.4, 23.2 122.4 M23.2 122.4 C7.73 122.4, 0 114.67, 0 99.2 M23.2 122.4 C7.73 122.4, 0 114.67, 0 99.2 M0 99.2 C0 80.74, 0 62.28, 0 23.2 M0 99.2 C0 74.34, 0 49.47, 0 23.2 M0 23.2 C0 7.73, 7.73 0, 23.2 0 M0 23.2 C0 7.73, 7.73 0, 23.2 0" stroke="#1e1e1e" stroke-width="1" fill="none"></path></g><g stroke-linecap="round" transform="translate(607.4000244140625 358.40003967285156) rotate(0 26.399993896484375 24.5)"><path d="M52.8 24.5 C52.8 25.92, 52.66 27.36, 52.4 28.75 C52.13 30.15, 51.73 31.55, 51.21 32.88 C50.69 34.21, 50.03 35.52, 49.26 36.75 C48.5 37.98, 47.61 39.16, 46.62 40.25 C45.64 41.33, 44.54 42.36, 43.37 43.27 C42.2 44.18, 40.92 45.01, 39.6 45.72 C38.28 46.43, 36.87 47.04, 35.43 47.52 C33.99 48.01, 32.49 48.38, 30.98 48.63 C29.48 48.87, 27.93 49, 26.4 49 C24.87 49, 23.32 48.87, 21.82 48.63 C20.31 48.38, 18.81 48.01, 17.37 47.52 C15.93 47.04, 14.52 46.43, 13.2 45.72 C11.88 45.01, 10.6 44.18, 9.43 43.27 C8.26 42.36, 7.16 41.33, 6.18 40.25 C5.19 39.16, 4.3 37.98, 3.54 36.75 C2.77 35.52, 2.11 34.21, 1.59 32.88 C1.07 31.55, 0.67 30.15, 0.4 28.75 C0.14 27.36, 0 25.92, 0 24.5 C0 23.08, 0.14 21.64, 0.4 20.25 C0.67 18.85, 1.07 17.45, 1.59 16.12 C2.11 14.79, 2.77 13.48, 3.54 12.25 C4.3 11.02, 5.19 9.84, 6.18 8.75 C7.16 7.67, 8.26 6.64, 9.43 5.73 C10.6 4.82, 11.88 3.99, 13.2 3.28 C14.52 2.57, 15.93 1.96, 17.37 1.48 C18.81 0.99, 20.31 0.62, 21.82 0.37 C23.32 0.13, 24.87 0, 26.4 0 C27.93 0, 29.48 0.13, 30.98 0.37 C32.49 0.62, 33.99 0.99, 35.43 1.48 C36.87 1.96, 38.28 2.57, 39.6 3.28 C40.92 3.99, 42.2 4.82, 43.37 5.73 C44.54 6.64, 45.64 7.67, 46.62 8.75 C47.61 9.84, 48.5 11.02, 49.26 12.25 C50.03 13.48, 50.69 14.79, 51.21 16.12 C51.73 17.45, 52.13 18.85, 52.4 20.25 C52.66 21.64, 52.73 23.79, 52.8 24.5 C52.87 25.21, 52.87 23.79, 52.8 24.5" stroke="#1e1e1e" stroke-width="1" fill="none"></path></g><g transform="translate(622.8084137348951 373.0759235337812) rotate(0 10.823989868164062 10)"><text x="10.823989868164062" y="0" font-family="Virgil, Segoe UI Emoji" font-size="16px" fill="#1e1e1e" text-anchor="middle" style="white-space: pre;" direction="ltr" dominant-baseline="text-before-edge">img</text></g><g transform="translate(616.7999877929688 415.0000457763672) rotate(0 25.67998504638672 20)"><text x="25.67998504638672" y="0" font-family="Virgil, Segoe UI Emoji" font-size="16px" fill="#1e1e1e" text-anchor="middle" style="white-space: pre;" direction="ltr" dominant-baseline="text-before-edge">4.5 *</text><text x="25.67998504638672" y="20" font-family="Virgil, Segoe UI Emoji" font-size="16px" fill="#1e1e1e" text-anchor="middle" style="white-space: pre;" direction="ltr" dominant-baseline="text-before-edge">45 Min</text></g><g stroke-linecap="round" transform="translate(743.199951171875 347.99998474121094) rotate(0 46.399993896484375 61.19999694824219)"><path d="M23.2 0 C38.92 0, 54.64 0, 69.6 0 M23.2 0 C34.09 0, 44.99 0, 69.6 0 M69.6 0 C85.07 0, 92.8 7.73, 92.8 23.2 M69.6 0 C85.07 0, 92.8 7.73, 92.8 23.2 M92.8 23.2 C92.8 52.2, 92.8 81.2, 92.8 99.2 M92.8 23.2 C92.8 49.92, 92.8 76.64, 92.8 99.2 M92.8 99.2 C92.8 114.67, 85.07 122.4, 69.6 122.4 M92.8 99.2 C92.8 114.67, 85.07 122.4, 69.6 122.4 M69.6 122.4 C55.27 122.4, 40.94 122.4, 23.2 122.4 M69.6 122.4 C56.08 122.4, 42.57 122.4, 23.2 122.4 M23.2 122.4 C7.73 122.4, 0 114.67, 0 99.2 M23.2 122.4 C7.73 122.4, 0 114.67, 0 99.2 M0 99.2 C0 76.37, 0 53.53, 0 23.2 M0 99.2 C0 68.98, 0 38.75, 0 23.2 M0 23.2 C0 7.73, 7.73 0, 23.2 0 M0 23.2 C0 7.73, 7.73 0, 23.2 0" stroke="#1e1e1e" stroke-width="1" fill="none"></path></g><g stroke-linecap="round" transform="translate(758.4000244140625 353.6000213623047) rotate(0 26.399993896484375 24.5)"><path d="M52.8 24.5 C52.8 25.92, 52.66 27.36, 52.4 28.75 C52.13 30.15, 51.73 31.55, 51.21 32.88 C50.69 34.21, 50.03 35.52, 49.26 36.75 C48.5 37.98, 47.61 39.16, 46.62 40.25 C45.64 41.33, 44.54 42.36, 43.37 43.27 C42.2 44.18, 40.92 45.01, 39.6 45.72 C38.28 46.43, 36.87 47.04, 35.43 47.52 C33.99 48.01, 32.49 48.38, 30.98 48.63 C29.48 48.87, 27.93 49, 26.4 49 C24.87 49, 23.32 48.87, 21.82 48.63 C20.31 48.38, 18.81 48.01, 17.37 47.52 C15.93 47.04, 14.52 46.43, 13.2 45.72 C11.88 45.01, 10.6 44.18, 9.43 43.27 C8.26 42.36, 7.16 41.33, 6.18 40.25 C5.19 39.16, 4.3 37.98, 3.54 36.75 C2.77 35.52, 2.11 34.21, 1.59 32.88 C1.07 31.55, 0.67 30.15, 0.4 28.75 C0.14 27.36, 0 25.92, 0 24.5 C0 23.08, 0.14 21.64, 0.4 20.25 C0.67 18.85, 1.07 17.45, 1.59 16.12 C2.11 14.79, 2.77 13.48, 3.54 12.25 C4.3 11.02, 5.19 9.84, 6.18 8.75 C7.16 7.67, 8.26 6.64, 9.43 5.73 C10.6 4.82, 11.88 3.99, 13.2 3.28 C14.52 2.57, 15.93 1.96, 17.37 1.48 C18.81 0.99, 20.31 0.62, 21.82 0.37 C23.32 0.13, 24.87 0, 26.4 0 C27.93 0, 29.48 0.13, 30.98 0.37 C32.49 0.62, 33.99 0.99, 35.43 1.48 C36.87 1.96, 38.28 2.57, 39.6 3.28 C40.92 3.99, 42.2 4.82, 43.37 5.73 C44.54 6.64, 45.64 7.67, 46.62 8.75 C47.61 9.84, 48.5 11.02, 49.26 12.25 C50.03 13.48, 50.69 14.79, 51.21 16.12 C51.73 17.45, 52.13 18.85, 52.4 20.25 C52.66 21.64, 52.73 23.79, 52.8 24.5 C52.87 25.21, 52.87 23.79, 52.8 24.5" stroke="#1e1e1e" stroke-width="1" fill="none"></path></g><g transform="translate(773.8084137348951 368.2759052232343) rotate(0 10.823989868164062 10)"><text x="10.823989868164062" y="0" font-family="Virgil, Segoe UI Emoji" font-size="16px" fill="#1e1e1e" text-anchor="middle" style="white-space: pre;" direction="ltr" dominant-baseline="text-before-edge">img</text></g><g transform="translate(767 411.00001525878906) rotate(0 25.67998504638672 20)"><text x="25.67998504638672" y="0" font-family="Virgil, Segoe UI Emoji" font-size="16px" fill="#1e1e1e" text-anchor="middle" style="white-space: pre;" direction="ltr" dominant-baseline="text-before-edge">4.5 *</text><text x="25.67998504638672" y="20" font-family="Virgil, Segoe UI Emoji" font-size="16px" fill="#1e1e1e" text-anchor="middle" style="white-space: pre;" direction="ltr" dominant-baseline="text-before-edge">45 Min</text></g><g stroke-linecap="round" transform="translate(854.4000854492188 209.6000213623047) rotate(0 46.399993896484375 61.19999694824219)"><path d="M23.2 0 C34.08 0, 44.97 0, 69.6 0 M23.2 0 C39.8 0, 56.4 0, 69.6 0 M69.6 0 C85.07 0, 92.8 7.73, 92.8 23.2 M69.6 0 C85.07 0, 92.8 7.73, 92.8 23.2 M92.8 23.2 C92.8 46.34, 92.8 69.49, 92.8 99.2 M92.8 23.2 C92.8 45.2, 92.8 67.2, 92.8 99.2 M92.8 99.2 C92.8 114.67, 85.07 122.4, 69.6 122.4 M92.8 99.2 C92.8 114.67, 85.07 122.4, 69.6 122.4 M69.6 122.4 C54.06 122.4, 38.53 122.4, 23.2 122.4 M69.6 122.4 C52.77 122.4, 35.95 122.4, 23.2 122.4 M23.2 122.4 C7.73 122.4, 0 114.67, 0 99.2 M23.2 122.4 C7.73 122.4, 0 114.67, 0 99.2 M0 99.2 C0 73.77, 0 48.33, 0 23.2 M0 99.2 C0 80.22, 0 61.23, 0 23.2 M0 23.2 C0 7.73, 7.73 0, 23.2 0 M0 23.2 C0 7.73, 7.73 0, 23.2 0" stroke="#1e1e1e" stroke-width="1" fill="none"></path></g><g stroke-linecap="round" transform="translate(869.60009765625 220.8000030517578) rotate(0 26.399993896484375 24.5)"><path d="M52.8 24.5 C52.8 25.92, 52.66 27.36, 52.4 28.75 C52.13 30.15, 51.73 31.55, 51.21 32.88 C50.69 34.21, 50.03 35.52, 49.26 36.75 C48.5 37.98, 47.61 39.16, 46.62 40.25 C45.64 41.33, 44.54 42.36, 43.37 43.27 C42.2 44.18, 40.92 45.01, 39.6 45.72 C38.28 46.43, 36.87 47.04, 35.43 47.52 C33.99 48.01, 32.49 48.38, 30.98 48.63 C29.48 48.87, 27.93 49, 26.4 49 C24.87 49, 23.32 48.87, 21.82 48.63 C20.31 48.38, 18.81 48.01, 17.37 47.52 C15.93 47.04, 14.52 46.43, 13.2 45.72 C11.88 45.01, 10.6 44.18, 9.43 43.27 C8.26 42.36, 7.16 41.33, 6.18 40.25 C5.19 39.16, 4.3 37.98, 3.54 36.75 C2.77 35.52, 2.11 34.21, 1.59 32.88 C1.07 31.55, 0.67 30.15, 0.4 28.75 C0.14 27.36, 0 25.92, 0 24.5 C0 23.08, 0.14 21.64, 0.4 20.25 C0.67 18.85, 1.07 17.45, 1.59 16.12 C2.11 14.79, 2.77 13.48, 3.54 12.25 C4.3 11.02, 5.19 9.84, 6.18 8.75 C7.16 7.67, 8.26 6.64, 9.43 5.73 C10.6 4.82, 11.88 3.99, 13.2 3.28 C14.52 2.57, 15.93 1.96, 17.37 1.48 C18.81 0.99, 20.31 0.62, 21.82 0.37 C23.32 0.13, 24.87 0, 26.4 0 C27.93 0, 29.48 0.13, 30.98 0.37 C32.49 0.62, 33.99 0.99, 35.43 1.48 C36.87 1.96, 38.28 2.57, 39.6 3.28 C40.92 3.99, 42.2 4.82, 43.37 5.73 C44.54 6.64, 45.64 7.67, 46.62 8.75 C47.61 9.84, 48.5 11.02, 49.26 12.25 C50.03 13.48, 50.69 14.79, 51.21 16.12 C51.73 17.45, 52.13 18.85, 52.4 20.25 C52.66 21.64, 52.73 23.79, 52.8 24.5 C52.87 25.21, 52.87 23.79, 52.8 24.5" stroke="#1e1e1e" stroke-width="1" fill="none"></path></g><g transform="translate(885.0084869770826 235.4758869126874) rotate(0 10.823989868164062 10)"><text x="10.823989868164062" y="0" font-family="Virgil, Segoe UI Emoji" font-size="16px" fill="#1e1e1e" text-anchor="middle" style="white-space: pre;" direction="ltr" dominant-baseline="text-before-edge">img</text></g><g transform="translate(879.0000610351562 277.40000915527344) rotate(0 25.67998504638672 20)"><text x="25.67998504638672" y="0" font-family="Virgil, Segoe UI Emoji" font-size="16px" fill="#1e1e1e" text-anchor="middle" style="white-space: pre;" direction="ltr" dominant-baseline="text-before-edge">4.5 *</text><text x="25.67998504638672" y="20" font-family="Virgil, Segoe UI Emoji" font-size="16px" fill="#1e1e1e" text-anchor="middle" style="white-space: pre;" direction="ltr" dominant-baseline="text-before-edge">45 Min</text></g><g stroke-linecap="round" transform="translate(854.2000122070312 340.6000518798828) rotate(0 46.399993896484375 61.19999694824219)"><path d="M23.2 0 C32.92 0, 42.65 0, 69.6 0 M23.2 0 C35.59 0, 47.98 0, 69.6 0 M69.6 0 C85.07 0, 92.8 7.73, 92.8 23.2 M69.6 0 C85.07 0, 92.8 7.73, 92.8 23.2 M92.8 23.2 C92.8 49.11, 92.8 75.01, 92.8 99.2 M92.8 23.2 C92.8 45.83, 92.8 68.47, 92.8 99.2 M92.8 99.2 C92.8 114.67, 85.07 122.4, 69.6 122.4 M92.8 99.2 C92.8 114.67, 85.07 122.4, 69.6 122.4 M69.6 122.4 C55.71 122.4, 41.82 122.4, 23.2 122.4 M69.6 122.4 C52.52 122.4, 35.44 122.4, 23.2 122.4 M23.2 122.4 C7.73 122.4, 0 114.67, 0 99.2 M23.2 122.4 C7.73 122.4, 0 114.67, 0 99.2 M0 99.2 C0 82.44, 0 65.69, 0 23.2 M0 99.2 C0 81.57, 0 63.93, 0 23.2 M0 23.2 C0 7.73, 7.73 0, 23.2 0 M0 23.2 C0 7.73, 7.73 0, 23.2 0" stroke="#1e1e1e" stroke-width="1" fill="none"></path></g><g stroke-linecap="round" transform="translate(869.4000244140625 351.80003356933594) rotate(0 26.399993896484375 24.5)"><path d="M52.8 24.5 C52.8 25.92, 52.66 27.36, 52.4 28.75 C52.13 30.15, 51.73 31.55, 51.21 32.88 C50.69 34.21, 50.03 35.52, 49.26 36.75 C48.5 37.98, 47.61 39.16, 46.62 40.25 C45.64 41.33, 44.54 42.36, 43.37 43.27 C42.2 44.18, 40.92 45.01, 39.6 45.72 C38.28 46.43, 36.87 47.04, 35.43 47.52 C33.99 48.01, 32.49 48.38, 30.98 48.63 C29.48 48.87, 27.93 49, 26.4 49 C24.87 49, 23.32 48.87, 21.82 48.63 C20.31 48.38, 18.81 48.01, 17.37 47.52 C15.93 47.04, 14.52 46.43, 13.2 45.72 C11.88 45.01, 10.6 44.18, 9.43 43.27 C8.26 42.36, 7.16 41.33, 6.18 40.25 C5.19 39.16, 4.3 37.98, 3.54 36.75 C2.77 35.52, 2.11 34.21, 1.59 32.88 C1.07 31.55, 0.67 30.15, 0.4 28.75 C0.14 27.36, 0 25.92, 0 24.5 C0 23.08, 0.14 21.64, 0.4 20.25 C0.67 18.85, 1.07 17.45, 1.59 16.12 C2.11 14.79, 2.77 13.48, 3.54 12.25 C4.3 11.02, 5.19 9.84, 6.18 8.75 C7.16 7.67, 8.26 6.64, 9.43 5.73 C10.6 4.82, 11.88 3.99, 13.2 3.28 C14.52 2.57, 15.93 1.96, 17.37 1.48 C18.81 0.99, 20.31 0.62, 21.82 0.37 C23.32 0.13, 24.87 0, 26.4 0 C27.93 0, 29.48 0.13, 30.98 0.37 C32.49 0.62, 33.99 0.99, 35.43 1.48 C36.87 1.96, 38.28 2.57, 39.6 3.28 C40.92 3.99, 42.2 4.82, 43.37 5.73 C44.54 6.64, 45.64 7.67, 46.62 8.75 C47.61 9.84, 48.5 11.02, 49.26 12.25 C50.03 13.48, 50.69 14.79, 51.21 16.12 C51.73 17.45, 52.13 18.85, 52.4 20.25 C52.66 21.64, 52.73 23.79, 52.8 24.5 C52.87 25.21, 52.87 23.79, 52.8 24.5" stroke="#1e1e1e" stroke-width="1" fill="none"></path></g><g transform="translate(884.8084137348951 366.47591743026555) rotate(0 10.823989868164062 10)"><text x="10.823989868164062" y="0" font-family="Virgil, Segoe UI Emoji" font-size="16px" fill="#1e1e1e" text-anchor="middle" style="white-space: pre;" direction="ltr" dominant-baseline="text-before-edge">img</text></g><g transform="translate(878.7999877929688 408.40003967285156) rotate(0 25.67998504638672 20)"><text x="25.67998504638672" y="0" font-family="Virgil, Segoe UI Emoji" font-size="16px" fill="#1e1e1e" text-anchor="middle" style="white-space: pre;" direction="ltr" dominant-baseline="text-before-edge">4.5 *</text><text x="25.67998504638672" y="20" font-family="Virgil, Segoe UI Emoji" font-size="16px" fill="#1e1e1e" text-anchor="middle" style="white-space: pre;" direction="ltr" dominant-baseline="text-before-edge">45 Min</text></g><g transform="translate(285.6000061035156 530) rotate(0 34.95196533203125 10)"><text x="34.95196533203125" y="0" font-family="Virgil, Segoe UI Emoji" font-size="16px" fill="#1e1e1e" text-anchor="middle" style="white-space: pre;" direction="ltr" dominant-baseline="text-before-edge">Copyright</text></g><g transform="translate(837.6000061035156 532.2000122070312) rotate(0 18.519989013671875 10)"><text x="18.519989013671875" y="0" font-family="Virgil, Segoe UI Emoji" font-size="16px" fill="#1e1e1e" text-anchor="middle" style="white-space: pre;" direction="ltr" dominant-baseline="text-before-edge">Links</text></g><g stroke-linecap="round"><g transform="translate(981.6001281738281 56.40003967285156) rotate(0 47.5999755859375 -0.40001678466796875)"><path d="M0 0 C15.87 -0.13, 79.33 -0.67, 95.2 -0.8 M0 0 C15.87 -0.13, 79.33 -0.67, 95.2 -0.8" stroke="#1e1e1e" stroke-width="1" fill="none"></path></g><g transform="translate(981.6001281738281 56.40003967285156) rotate(0 47.5999755859375 -0.40001678466796875)"><path d="M71.78 7.95 C80.72 4.61, 89.65 1.27, 95.2 -0.8 M71.78 7.95 C80.01 4.87, 88.25 1.8, 95.2 -0.8" stroke="#1e1e1e" stroke-width="1" fill="none"></path></g><g transform="translate(981.6001281738281 56.40003967285156) rotate(0 47.5999755859375 -0.40001678466796875)"><path d="M71.64 -9.15 C80.63 -5.97, 89.62 -2.78, 95.2 -0.8 M71.64 -9.15 C79.92 -6.22, 88.21 -3.28, 95.2 -0.8" stroke="#1e1e1e" stroke-width="1" fill="none"></path></g></g><mask></mask><g transform="translate(1091.6000061035156 45) rotate(0 68.74396514892578 10)"><text x="68.74396514892578" y="0" font-family="Virgil, Segoe UI Emoji" font-size="16px" fill="#1e1e1e" text-anchor="middle" style="white-space: pre;" direction="ltr" dominant-baseline="text-before-edge">Header component</text></g><g stroke-linecap="round"><g transform="translate(829.25854106609 42.80000305175781) rotate(0 133.7707691398066 -14)"><path d="M0 0 C44.59 -4.67, 222.95 -23.33, 267.54 -28 M0 0 C44.59 -4.67, 222.95 -23.33, 267.54 -28" stroke="#1e1e1e" stroke-width="1" fill="none"></path></g><g transform="translate(829.25854106609 42.80000305175781) rotate(0 133.7707691398066 -14)"><path d="M245.07 -17.05 C250.17 -19.54, 255.27 -22.02, 267.54 -28 M245.07 -17.05 C250.4 -19.65, 255.73 -22.24, 267.54 -28" stroke="#1e1e1e" stroke-width="1" fill="none"></path></g><g transform="translate(829.25854106609 42.80000305175781) rotate(0 133.7707691398066 -14)"><path d="M243.29 -34.06 C248.79 -32.68, 254.3 -31.31, 267.54 -28 M243.29 -34.06 C249.04 -32.62, 254.79 -31.19, 267.54 -28" stroke="#1e1e1e" stroke-width="1" fill="none"></path></g></g><mask></mask><g transform="translate(1111.6000061035156 10) rotate(0 80.98395538330078 10)"><text x="80.98395538330078" y="0" font-family="Virgil, Segoe UI Emoji" font-size="16px" fill="#1e1e1e" text-anchor="middle" style="white-space: pre;" direction="ltr" dominant-baseline="text-before-edge">Nav items component</text></g><g stroke-linecap="round"><g transform="translate(244.80001831054688 59.600006103515625) rotate(0 -52 0)"><path d="M0 0 C-17.33 0, -86.67 0, -104 0 M0 0 C-17.33 0, -86.67 0, -104 0" stroke="#1e1e1e" stroke-width="1" fill="none"></path></g><g transform="translate(244.80001831054688 59.600006103515625) rotate(0 -52 0)"><path d="M-80.51 -8.55 C-89.43 -5.3, -98.36 -2.05, -104 0 M-80.51 -8.55 C-86.92 -6.22, -93.34 -3.88, -104 0" stroke="#1e1e1e" stroke-width="1" fill="none"></path></g><g transform="translate(244.80001831054688 59.600006103515625) rotate(0 -52 0)"><path d="M-80.51 8.55 C-89.43 5.3, -98.36 2.05, -104 0 M-80.51 8.55 C-86.92 6.22, -93.34 3.88, -104 0" stroke="#1e1e1e" stroke-width="1" fill="none"></path></g></g><mask></mask><g transform="translate(16.400009155273438 47) rotate(0 59.91997528076172 10)"><text x="59.91997528076172" y="0" font-family="Virgil, Segoe UI Emoji" font-size="16px" fill="#1e1e1e" text-anchor="middle" style="white-space: pre;" direction="ltr" dominant-baseline="text-before-edge">Logo component</text></g><g stroke-linecap="round"><g transform="translate(268 142.00003051757812) rotate(0 -60.40000915527344 0.79998779296875)"><path d="M0 0 C-20.13 0.27, -100.67 1.33, -120.8 1.6 M0 0 C-20.13 0.27, -100.67 1.33, -120.8 1.6" stroke="#1e1e1e" stroke-width="1" fill="none"></path></g><g transform="translate(268 142.00003051757812) rotate(0 -60.40000915527344 0.79998779296875)"><path d="M-97.42 -7.26 C-105.39 -4.24, -113.36 -1.22, -120.8 1.6 M-97.42 -7.26 C-104.38 -4.62, -111.35 -1.98, -120.8 1.6" stroke="#1e1e1e" stroke-width="1" fill="none"></path></g><g transform="translate(268 142.00003051757812) rotate(0 -60.40000915527344 0.79998779296875)"><path d="M-97.2 9.84 C-105.24 7.03, -113.29 4.22, -120.8 1.6 M-97.2 9.84 C-104.23 7.39, -111.25 4.93, -120.8 1.6" stroke="#1e1e1e" stroke-width="1" fill="none"></path></g></g><mask></mask><g transform="translate(10 130) rotate(0 63.75995635986328 10)"><text x="63.75995635986328" y="0" font-family="Virgil, Segoe UI Emoji" font-size="16px" fill="#1e1e1e" text-anchor="middle" style="white-space: pre;" direction="ltr" dominant-baseline="text-before-edge">search bar comp</text></g><g stroke-linecap="round"><g transform="translate(989.6000061035156 127.60000610351562) rotate(0 52 -1.1999969482421875)"><path d="M0 0 C17.33 -0.4, 86.67 -2, 104 -2.4 M0 0 C17.33 -0.4, 86.67 -2, 104 -2.4" stroke="#1e1e1e" stroke-width="1" fill="none"></path></g><g transform="translate(989.6000061035156 127.60000610351562) rotate(0 52 -1.1999969482421875)"><path d="M80.71 6.69 C85.71 4.74, 90.72 2.79, 104 -2.4 M80.71 6.69 C87 4.24, 93.29 1.78, 104 -2.4" stroke="#1e1e1e" stroke-width="1" fill="none"></path></g><g transform="translate(989.6000061035156 127.60000610351562) rotate(0 52 -1.1999969482421875)"><path d="M80.32 -10.41 C85.4 -8.69, 90.49 -6.97, 104 -2.4 M80.32 -10.41 C86.71 -8.24, 93.11 -6.08, 104 -2.4" stroke="#1e1e1e" stroke-width="1" fill="none"></path></g></g><mask></mask><g transform="translate(1106.1999816894531 118) rotate(0 60.80796813964844 10)"><text x="60.80796813964844" y="0" font-family="Virgil, Segoe UI Emoji" font-size="16px" fill="#1e1e1e" text-anchor="middle" style="white-space: pre;" direction="ltr" dominant-baseline="text-before-edge">Body component</text></g><g stroke-linecap="round"><g transform="translate(946.4000549316406 255.60000610351562) rotate(0 67.20001220703125 1.600006103515625)"><path d="M0 0 C22.4 0.53, 112 2.67, 134.4 3.2 M0 0 C22.4 0.53, 112 2.67, 134.4 3.2" stroke="#1e1e1e" stroke-width="1" fill="none"></path></g><g transform="translate(946.4000549316406 255.60000610351562) rotate(0 67.20001220703125 1.600006103515625)"><path d="M110.71 11.19 C115.72 9.5, 120.73 7.81, 134.4 3.2 M110.71 11.19 C119.44 8.24, 128.18 5.3, 134.4 3.2" stroke="#1e1e1e" stroke-width="1" fill="none"></path></g><g transform="translate(946.4000549316406 255.60000610351562) rotate(0 67.20001220703125 1.600006103515625)"><path d="M111.12 -5.91 C116.04 -3.98, 120.96 -2.06, 134.4 3.2 M111.12 -5.91 C119.7 -2.55, 128.28 0.81, 134.4 3.2" stroke="#1e1e1e" stroke-width="1" fill="none"></path></g></g><mask></mask><g transform="translate(1085.5998840332031 245.79998779296875) rotate(0 86.3919448852539 10)"><text x="86.3919448852539" y="0" font-family="Virgil, Segoe UI Emoji" font-size="16px" fill="#1e1e1e" text-anchor="middle" style="white-space: pre;" direction="ltr" dominant-baseline="text-before-edge">restaurant card comp</text></g><g stroke-linecap="round"><g transform="translate(996.0000305175781 538.7999877929688) rotate(0 45.20001220703125 -0.399993896484375)"><path d="M0 0 C15.07 -0.13, 75.33 -0.67, 90.4 -0.8 M0 0 C15.07 -0.13, 75.33 -0.67, 90.4 -0.8" stroke="#1e1e1e" stroke-width="1" fill="none"></path></g><g transform="translate(996.0000305175781 538.7999877929688) rotate(0 45.20001220703125 -0.399993896484375)"><path d="M66.98 7.96 C75.06 4.94, 83.14 1.91, 90.4 -0.8 M66.98 7.96 C73.84 5.39, 80.7 2.83, 90.4 -0.8" stroke="#1e1e1e" stroke-width="1" fill="none"></path></g><g transform="translate(996.0000305175781 538.7999877929688) rotate(0 45.20001220703125 -0.399993896484375)"><path d="M66.83 -9.14 C74.96 -6.26, 83.1 -3.39, 90.4 -0.8 M66.83 -9.14 C73.74 -6.7, 80.64 -4.25, 90.4 -0.8" stroke="#1e1e1e" stroke-width="1" fill="none"></path></g></g><mask></mask><g transform="translate(1089.6000061035156 526.4000244140625) rotate(0 68.04796600341797 10)"><text x="68.04796600341797" y="0" font-family="Virgil, Segoe UI Emoji" font-size="16px" fill="#1e1e1e" text-anchor="middle" style="white-space: pre;" direction="ltr" dominant-baseline="text-before-edge">Footer component</text></g><g stroke-linecap="round"><g transform="translate(968.8000793457031 210) rotate(0 54.79998779296875 2.4000091552734375)"><path d="M0 0 C18.27 0.8, 91.33 4, 109.6 4.8 M0 0 C18.27 0.8, 91.33 4, 109.6 4.8" stroke="#1e1e1e" stroke-width="1" fill="none"></path></g><g transform="translate(968.8000793457031 210) rotate(0 54.79998779296875 2.4000091552734375)"><path d="M85.76 12.31 C93.74 9.8, 101.72 7.28, 109.6 4.8 M85.76 12.31 C94.4 9.59, 103.05 6.86, 109.6 4.8" stroke="#1e1e1e" stroke-width="1" fill="none"></path></g><g transform="translate(968.8000793457031 210) rotate(0 54.79998779296875 2.4000091552734375)"><path d="M86.5 -4.77 C94.24 -1.57, 101.97 1.64, 109.6 4.8 M86.5 -4.77 C94.88 -1.3, 103.26 2.17, 109.6 4.8" stroke="#1e1e1e" stroke-width="1" fill="none"></path></g></g><mask></mask><g transform="translate(1080.0000305175781 202.39999389648438) rotate(0 51.50397491455078 10)"><text x="51.50397491455078" y="0" font-family="Virgil, Segoe UI Emoji" font-size="16px" fill="#1e1e1e" text-anchor="middle" style="white-space: pre;" direction="ltr" dominant-baseline="text-before-edge">res container</text></g><g stroke-opacity="0.2" fill-opacity="0.2" transform="translate(58.31329345703125 398) rotate(0 41.35546875 18.400000000000006)"><text x="41.35546875" y="0" font-family="Helvetica, Segoe UI Emoji" font-size="16px" fill="#1e1e1e" text-anchor="middle" style="white-space: pre;" direction="ltr" dominant-baseline="text-before-edge">Created by </text><text x="41.35546875" y="18.4" font-family="Helvetica, Segoe UI Emoji" font-size="16px" fill="#1e1e1e" text-anchor="middle" style="white-space: pre;" direction="ltr" dominant-baseline="text-before-edge">Adarsh Jha</text></g><g stroke-linecap="round"><g stroke-opacity="0.2" fill-opacity="0.2" transform="translate(779.2000427246094 52.40000915527338) rotate(0 0.79998779296875 14.799995422363281)"><path d="M0 0 C0.27 4.93, 1.33 24.67, 1.6 29.6 M0 0 C0.27 4.93, 1.33 24.67, 1.6 29.6" stroke="#1e1e1e" stroke-width="1" fill="none"></path></g></g><mask></mask><g stroke-linecap="round"><g stroke-opacity="0.2" fill-opacity="0.2" transform="translate(891.1999816894531 50.800003051757756) rotate(0 0.4000244140625 11.599998474121094)"><path d="M0 0 C0.13 3.87, 0.67 19.33, 0.8 23.2 M0 0 C0.13 3.87, 0.67 19.33, 0.8 23.2" stroke="#1e1e1e" stroke-width="1" fill="none"></path></g></g><mask></mask><g stroke-linecap="round" transform="translate(267.1999816894531 113.99999999999994) rotate(0 350.3999786376953 26.79998779296875)"><path d="M13.4 0 C248.57 0, 483.73 0, 687.4 0 M13.4 0 C150.68 0, 287.95 0, 687.4 0 M687.4 0 C696.33 0, 700.8 4.47, 700.8 13.4 M687.4 0 C696.33 0, 700.8 4.47, 700.8 13.4 M700.8 13.4 C700.8 19.21, 700.8 25.02, 700.8 40.2 M700.8 13.4 C700.8 21.16, 700.8 28.91, 700.8 40.2 M700.8 40.2 C700.8 49.13, 696.33 53.6, 687.4 53.6 M700.8 40.2 C700.8 49.13, 696.33 53.6, 687.4 53.6 M687.4 53.6 C548.59 53.6, 409.79 53.6, 13.4 53.6 M687.4 53.6 C440.73 53.6, 194.06 53.6, 13.4 53.6 M13.4 53.6 C4.47 53.6, 0 49.13, 0 40.2 M13.4 53.6 C4.47 53.6, 0 49.13, 0 40.2 M0 40.2 C0 33.3, 0 26.4, 0 13.4 M0 40.2 C0 34.46, 0 28.72, 0 13.4 M0 13.4 C0 4.47, 4.47 0, 13.4 0 M0 13.4 C0 4.47, 4.47 0, 13.4 0" stroke="#1e1e1e" stroke-width="1" fill="none"></path></g></svg>